<svg width="100%" height="100%" id="svg" viewBox="0 0 1440 600" xmlns="http://www.w3.org/2000/svg" class="transition duration-300 ease-in-out delay-150"><path d="M 0,600 C 0,600 0,200 0,200 C 112.50717703349281,161.1866028708134 225.01435406698562,122.3732057416268 328,130 C 430.9856459330144,137.6267942583732 524.4497607655503,191.69377990430624 610,206 C 695.5502392344497,220.30622009569376 773.1866028708134,194.85167464114832 873,193 C 972.8133971291866,191.14832535885168 1094.8038277511962,212.89952153110048 1193,218 C 1291.1961722488038,223.10047846889952 1365.598086124402,211.55023923444975 1440,200 C 1440,200 1440,600 1440,600 Z" stroke="none" stroke-width="0" fill="#ff0080" fill-opacity="0.53" class="transition-all duration-300 ease-in-out delay-150 path-0"></path><path d="M 0,600 C 0,600 0,400 0,400 C 102.39234449760764,370.51674641148327 204.78468899521528,341.0334928229665 299,346 C 393.2153110047847,350.9665071770335 479.2535885167465,390.3827751196172 582,423 C 684.7464114832535,455.6172248803828 804.2009569377989,481.4354066985646 893,473 C 981.7990430622011,464.5645933014354 1039.9425837320575,421.8755980861244 1126,404 C 1212.0574162679425,386.1244019138756 1326.0287081339711,393.0622009569378 1440,400 C 1440,400 1440,600 1440,600 Z" stroke="none" stroke-width="0" fill="#ff0080" fill-opacity="1" class="transition-all duration-300 ease-in-out delay-150 path-1"></path></svg>